# xmcd
#
# Track frame offsets:
# 150
# 13623
# 29909
# 46299
# 63912
# 84215
# 90400
# 109482
# 130435
# 144257
# 157152
# 160514
#
# Disc length: 2479 seconds
#
#
# Revision: 2
# Processed by: cddbd v1.4PL0 Copyright (c) Steve Scherf et al.
# Submitted via: FreeRIP 2.30 
#
DISCID=9809ad0c
DTITLE=Los redondos - Lobo suelto-Cordero atado
DYEAR=1900
DGENRE=
TTITLE0=Yo canibal
TTITLE1=Ladron de mi cerebro
TTITLE2=Es hora de levantarse, querido (dormiste bien?)
TTITLE3=Perdiendo el tiempo
TTITLE4=Cana seca y un membrillo
TTITLE5=Soga de Cain
TTITLE6=Lavi-rap
TTITLE7=El arte del buen comer
TTITLE8=Lobo, estas?
TTITLE9=Botija rapado
TTITLE10=San Telmo
TTITLE11=Etiqueta negra
EXTD=
EXTT0=
EXTT1=
EXTT2=
EXTT3=
EXTT4=
EXTT5=
EXTT6=
EXTT7=
EXTT8=
EXTT9=
EXTT10=
EXTT11=
PLAYORDER=
